CalibrationMatrices=Corners=DataRate=2000.000000
Origins=Types=events=DataType=double
version=2
endheader
time	f1_x	f1_y	f1_z	p1_x	p1_y	p1_z	m1_x	m1_y	m1_z	f2_x	f2_y	f2_z	p2_x	p2_y	p2_z	m2_x	m2_y	m2_z
1.249	2.498160123825073	13.32948780059814	-0.889720022678376	826.1391229298397	3.534078812738058e-14	577.1588698388175	110.5651595479349	589.944948408192	-39.3777946106209	1.613160014152527	19.86564064025879	-1.24460005760193	265.1479353349747	3.345204198786992e-14	546.3133045570451	88.66562110412519	1091.893767851201	-68.4081158504783
1.2495	2.230499982833862	12.97871112823486	-0.711776018142701	820.5217695103808	3.470662017794848e-14	566.8021212665167	109.5127833205756	637.2269852075567	-34.94668166220257	1.70278000831604	20.21416091918945	-0.933449983596803	270.4905550946148	3.322118742729159e-14	542.5431634724637	91.53700059849916	1086.660432423035	-50.17983021287075
1.25	2.408940076828003	12.45254707336426	-0.8007479906082161	816.1665178770927	3.509936765931462e-14	573.2161743900717	117.5407051604978	607.6038080510684	-39.07132617257779	1.478730082511902	20.73694038391113	-0.711199998855592	272.6372173590007	3.322916125893429e-14	542.6733860255827	71.88198191081688	1008.035469887717	-34.57187086223968
1.2505	2.275110006332397	13.32948780059814	-0.6672900319099434	822.5006339360998	3.545311666349292e-14	578.9933340482621	97.54393683844688	571.4935596483108	-28.60964812443425	1.389109969139099	20.38842010498047	-0.6667500138282788	275.2065010052127	3.264940793087761e-14	533.2052956592775	71.41751889019565	1048.218219102621	-34.279238336422
1.251	2.275110006332397	13.50487518310547	-0.7562620043754585	824.2860135229116	3.502067800491654e-14	571.9310748094765	107.8990145400824	640.4801173077874	-35.86636460615073	1.209869980812073	20.0398998260498	-0.711199998855592	282.6925791850599	3.22976273023951e-14	527.4602820157121	63.72692539514173	1055.552432405676	-37.4607106440268
1.2515	2.319720029830933	12.97871112823486	-0.9342060089111336	815.7628945138867	3.552414035963542e-14	580.1532390297139	113.7578638852584	636.4692441093571	-45.81297684024756	1.12024998664856	19.69138145446777	-0.5778499841690076	277.7339441490688	3.268928876909581e-14	533.856599173825	59.21962857558105	1040.942923250843	-30.5468081613372
1.252	2.096670150756836	14.03103923797607	-0.8007479906082162	825.0157039872663	3.525752846575094e-14	575.7991363762777	93.99096295407168	628.9930195971413	-35.89647837245005	1.075440049171448	19.69138145446777	-0.711199998855592	279.6494958982204	3.257004533297727e-14	531.9092060772756	54.92710769556584	1005.719129259982	-36.32388338180602
1.2525	2.141280174255371	13.50487518310547	-0.8452340364456185	819.6938678551069	3.550382346897925e-14	579.8214390254954	96.36346283282973	607.7563101810076	-38.03784279859318	0.9858199954032898	19.86564064025879	-0.6667500138282788	278.4458602286398	3.258179659409424e-14	532.1011187352786	47.7426607006621	962.080851587069	-32.29029623135506
1.253	2.141280174255371	13.32948780059814	-0.8452340364456185	823.5773978073537	3.537160446925093e-14	577.662138893892	96.01072204677257	597.6675839228351	-37.89860435515974	1.568350076675415	19.51712036132812	-0.6223000288009656	274.8682730607451	3.274146587559916e-14	534.7087159888882	86.50771155613938	1076.533513616588	-34.32508608473933
1.2535	2.587380170822144	12.45254707336426	-0.6672900319099434	824.2615002942609	3.486583659506757e-14	569.4023226834468	120.989577641363	582.2988163686821	-31.20343119094927	1.926830053329468	19.16860008239746	-0.8889999985694897	269.8823530400712	3.203193111242935e-14	523.1211339421493	125.3120705961803	1246.636652051747	-57.81642775824783
1.254	2.676599979400635	12.6279354095459	-0.5338320136070259	821.1160054646883	3.477407459284988e-14	567.9037354617011	122.7492071872322	579.1186848474979	-24.48160238576228	2.061259984970093	18.8200798034668	-1.022349953651429	261.699214408706	3.174268567714462e-14	518.3973975066951	142.2840239024604	1299.106713431657	-70.57045996268639
1.2545	2.364330053329468	11.92638397216797	-0.4893460273742683	820.250263763925	3.470672653603903e-14	566.8038582259506	118.6702541672289	598.6080561299349	-24.56121443892838	1.837210059165955	18.8200798034668	-0.9334499835968029	261.4813190671555	3.214927570446958e-14	525.0375165615613	105.6234876094616	1081.989757248001	-53.66519864432298
1.255	2.185889959335327	13.1540994644165	-0.889720022678376	827.4224338472858	3.533496220303458e-14	577.0637252738693	92.31950878716003	555.5540414585361	-37.5766927795144	1.12024998664856	18.99434089660645	-1.111250042915345	265.8076184834868	3.301780171742519e-14	539.221622763616	58.40488017324742	990.2809348429298	-57.93566290784322
1.2555	2.364330053329468	13.50487518310547	-0.8007479906082161	823.9756085982248	3.532042795270593e-14	576.8263629529329	103.4896775011798	591.1252430366644	-35.04973901214183	1.165060043334961	19.16860008239746	-0.933449983596803	268.7333630552075	3.250883434767278e-14	530.909554825223	63.67950308851482	1047.711605193723	-51.02022977569181
1.256	2.408940076828003	13.1540994644165	-0.9786920547485359	824.0169313202036	3.578428189618572e-14	584.4016727288249	116.6409907847755	636.9221090926183	-47.38831490128727	2.150880098342896	20.0398998260498	-0.6667500138282788	269.9160187128316	3.288004703470448e-14	536.9719180680805	131.8481037082711	1228.437974113028	-40.8715134974054
1.2565	2.185889959335327	13.50487518310547	-1.067664027214051	827.4861846356707	3.590567654976055e-14	586.3841978725536	107.7393116302583	665.635499932838	-52.62359472999678	2.061259984970093	21.95676040649414	-0.4889500141143812	284.5542426188596	3.375734754002899e-14	551.2993226052143	108.987939251138	1160.951110866054	-25.85295150718919
1.257	2.364330053329468	14.73259162902832	-1.245608091354371	833.2438015299751	3.681213411270878e-14	601.1877732965754	105.1989999604725	655.5150386120129	-55.42234907881225	1.657970070838928	21.25971984863281	-0.6223000288009657	294.9721538586807	3.299927473036866e-14	538.9190541035022	87.18972964624413	1118.011270866459	-32.72566388520609
